Coordinates
version=1
nRows=29
nColumns=24
inDegrees=yes

Units are S.I. units (second, meters, Newtons, ...)
Angles are in degrees.

endheader
time	pelvis_tilt	pelvis_list	pelvis_rotation	pelvis_tx	pelvis_ty	pelvis_tz	hip_flexion_r	hip_adduction_r	hip_rotation_r	knee_angle_r	ankle_angle_r	subtalar_angle_r	mtp_angle_r	hip_flexion_l	hip_adduction_l	hip_rotation_l	knee_angle_l	ankle_angle_l	subtalar_angle_l	mtp_angle_l	lumbar_extension	lumbar_bending	lumbar_rotation
      4.59000000	    -10.15067030	      6.39377915	      3.14398784	     -0.28395682	     -0.01675268	      0.53879527	     27.37680759	    -11.81328986	     -2.90643598	    -65.38427095	     -2.57618144	     -4.19451617	     11.75785941	     16.35845938	     12.30009041	      1.66383327	    -14.74955461	      1.92260808	      6.99905662	      3.03786183	      7.19294572	     -9.23524629	     -2.41098608
      4.59500000	    -10.14460616	      6.06345134	      3.54119458	     -0.27748960	     -0.01578049	      0.53818292	     27.97527787	    -11.53276375	     -3.22820770	    -64.74508135	     -2.49725134	     -4.19038643	     11.75104399	     15.54716081	     12.10998195	      2.53121217	    -14.20100116	      2.05793974	      6.66683851	      2.56473428	      7.15277301	     -8.95483212	     -2.90652838
      4.60000000	    -10.14672197	      5.73894805	      3.94828829	     -0.27105708	     -0.01490617	      0.53758664	     28.56884271	    -11.26990579	     -3.56931717	    -64.05293917	     -2.45697216	     -4.29428484	     11.65556539	     14.76328000	     11.90571894	      3.35658601	    -13.67113893	      2.20118354	      6.39695591	      2.15494144	      7.11680290	     -8.68513182	     -3.42415283
      4.60500000	    -10.14876918	      5.42310026	      4.33831690	     -0.26465721	     -0.01411939	      0.53704012	     29.15505409	    -11.01145314	     -3.89562739	    -63.30793115	     -2.45562663	     -4.49162481	     11.48327990	     13.99509259	     11.68598421	      4.13347789	    -13.15218899	      2.34982087	      6.14808388	      1.78523862	      7.07875942	     -8.42551654	     -3.95037987
      4.61000000	    -10.13988663	      5.12855093	      4.73099886	     -0.25822179	     -0.01339478	      0.53648451	     29.70379600	    -10.79716732	     -4.25336263	    -62.50160767	     -2.45941948	     -4.76330572	     11.23124618	     13.20942240	     11.47358048	      4.90998962	    -12.61970693	      2.48396893	      5.89062553	      1.38215765	      7.03791541	     -8.18698263	     -4.44054956
      4.61500000	    -10.11824516	      4.85622612	      5.11796063	     -0.25175299	     -0.01273988	      0.53591128	     30.21542430	    -10.62712185	     -4.63557921	    -61.64069678	     -2.44711279	     -5.05420628	     10.87332960	     12.40450632	     11.27000045	      5.69402317	    -12.07847382	      2.61843503	      5.61318351	      0.89776581	      6.99151645	     -7.96653660	     -4.87150068
      4.62000000	    -10.13096221	      4.58358245	      5.48203375	     -0.24537764	     -0.01222460	      0.53543278	     30.76859169	    -10.43714036	     -4.97475352	    -60.73664876	     -2.50031690	     -5.47398141	     10.47003254	     11.68130806	     11.03690831	      6.33496781	    -11.58406761	      2.78304560	      5.47335775	      0.58596953	      6.97066630	     -7.75278570	     -5.36962115
      4.62500000	    -10.11773029	      4.32497294	      5.85212300	     -0.23897138	     -0.01175300	      0.53493507	     31.26110249	    -10.28730739	     -5.35933872	    -59.77068607	     -2.53942732	     -5.91601960	      9.96560153	     10.92313383	     10.80643140	      7.00063470	    -11.07518805	      2.92758988	      5.30110600	      0.24854947	      6.92591567	     -7.55116137	     -5.83504474
      4.63000000	    -10.11240986	      4.07748291	      6.20187224	     -0.23257819	     -0.01138682	      0.53446689	     31.74876599	    -10.15201334	     -5.74099846	    -58.75613491	     -2.58272045	     -6.38600755	      9.38880160	     10.18790921	     10.56966006	      7.61217739	    -10.57829310	      3.08601938	      5.16207169	     -0.05472711	      6.89068101	     -7.35878146	     -6.27684655
      4.63500000	    -10.06659276	      3.84545797	      6.54535034	     -0.22612803	     -0.01106053	      0.53395728	     32.15789128	    -10.05342262	     -6.15685717	    -57.69050013	     -2.55701945	     -6.73924778	      8.56670158	      9.39472675	     10.33849381	      8.28125918	    -10.06515881	      3.24573039	      4.94320944	     -0.48314015	      6.82265331	     -7.16766856	     -6.65488149
      4.64000000	    -10.11905307	      3.61376153	      6.84865661	     -0.21976732	     -0.01092797	      0.53354725	     32.68155529	     -9.92911990	     -6.50833985	    -56.56423181	     -2.65783106	     -7.31996695	      7.98590892	      8.77019430	     10.09098033	      8.68126897	     -9.62026173	      3.41746995	      4.94418646	     -0.63330500	      6.85513857	     -6.98641645	     -7.08100563
      4.64500000	    -10.05876179	      3.42585222	      7.17892396	     -0.21340869	     -0.01078935	      0.53314089	     33.04558711	     -9.87275334	     -6.91953026	    -55.40357720	     -2.67268075	     -7.80645819	      7.15602297	      7.99953046	      9.86999799	      9.24433688	     -9.14650561	      3.59733186	      4.85375227	     -0.87503789	      6.74729258	     -6.85185735	     -7.51670791
      4.65000000	    -10.01304049	      3.21632824	      7.45994881	     -0.20696633	     -0.01074711	      0.53274701	     33.39851294	     -9.78681120	     -7.33080629	    -54.18832218	     -2.60348392	     -8.09405758	      6.06060093	      7.24568353	      9.61566215	      9.78193505	     -8.67301561	      3.80189748	      4.69810484	     -1.21241329	      6.68131944	     -6.68056110	     -7.84587455
      4.65500000	    -10.11413483	      3.02204834	      7.68847354	     -0.20061422	     -0.01097572	      0.53247712	     33.92820170	     -9.68584995	     -7.63725806	    -52.90952542	     -2.70149213	     -8.63052962	      5.57367983	      6.70889825	      9.37256172	     10.06854077	     -8.26720754	      4.03833029	      4.77837444	     -1.25304708	      6.76773020	     -6.54389289	     -8.16738798
      4.66000000	    -10.09690126	      2.83156599	      7.96394748	     -0.19424500	     -0.01113375	      0.53210243	     34.27157407	     -9.63139060	     -8.07832767	    -51.56062741	     -2.77055359	     -9.13897141	      4.91353144	      6.04169274	      9.12610665	     10.42315685	     -7.86437999	      4.25827291	      4.79633408	     -1.35104769	      6.71868988	     -6.39074308	     -8.54637681
      4.66500000	     -9.93724953	      2.70437850	      8.20629161	     -0.18784004	     -0.01124824	      0.53176084	     34.43430787	     -9.61293028	     -8.48917360	    -50.21505565	     -2.58658712	     -9.18419347	      3.53854772	      5.17688753	      8.91694892	     10.94966757	     -7.41239152	      4.46234467	      4.59400185	     -1.74399029	      6.50634997	     -6.28037013	     -8.87703540
      4.67000000	     -9.97708937	      2.57012089	      8.44952554	     -0.18154082	     -0.01164934	      0.53147673	     34.81577477	     -9.59678874	     -8.86901054	    -48.78993499	     -2.63536593	     -9.56344185	      2.87498319	      4.60639878	      8.71907790	     11.24206245	     -7.06938569	      4.70293226	      4.68504607	     -1.84635168	      6.50170935	     -6.19482742	     -9.19882466
      4.67500000	     -9.95098024	      2.41792553	      8.65944807	     -0.17517007	     -0.01206662	      0.53119502	     35.08961005	     -9.54735048	     -9.26987360	    -47.29849470	     -2.61573419	     -9.76323283	      2.21648247	      3.95860517	      8.48614394	     11.54708211	     -6.71476917	      4.96847055	      4.70529303	     -1.96440079	      6.44040250	     -6.06863401	     -9.49639165
      4.68000000	     -9.91478530	      2.28016106	      8.85811065	     -0.16880595	     -0.01255944	      0.53096436	     35.33348542	     -9.50394359	     -9.67414235	    -45.76947749	     -2.55496705	     -9.84119803	      1.55594283	      3.30853105	      8.25948122	     11.85399669	     -6.37691022	      5.24063255	      4.70973609	     -2.10153157	      6.35756518	     -5.96448633	     -9.78225459
      4.68500000	    -10.00049153	      2.16026923	      8.96716089	     -0.16241085	     -0.01330465	      0.53079979	     35.71600974	     -9.43457866	     -9.94055249	    -44.19923972	     -2.47631315	     -9.77309298	      1.24758987	      2.81341362	      8.06762690	     12.01719452	     -6.07918589	      5.53163626	      4.73456782	     -2.13122919	      6.42225808	     -5.87121168	     -9.93810730
      4.69000000	     -9.85103628	      2.04451759	      9.21656731	     -0.15607200	     -0.01381338	      0.53052401	     35.77362580	     -9.43034099	    -10.45608539	    -42.58952013	     -2.37698739	     -9.71211066	      0.55123487	      2.05970493	      7.84256859	     12.39554789	     -5.78273661	      5.82196083	      4.75089419	     -2.30608844	      6.19667064	     -5.77359239	    -10.30752964
      4.69500000	     -9.83403750	      1.92436230	      9.37954425	     -0.14966681	     -0.01458021	      0.53035583	     35.98172836	     -9.37902145	    -10.86398018	    -40.95737812	     -2.22704655	     -9.44857296	      0.05323266	      1.47037997	      7.62950394	     12.65460599	     -5.52425966	      6.14186891	      4.74534839	     -2.44087362	      6.13218154	     -5.68305354	    -10.54535237
      4.70000000	     -9.82659554	      1.82311948	      9.51825356	     -0.14324186	     -0.01543578	      0.53019432	     36.18747790	     -9.32553823	    -11.23322165	    -39.29865550	     -2.07571660	     -9.10145613	     -0.31605433	      0.90491854	      7.43675318	     12.88480544	     -5.29872076	      6.46862695	      4.76562380	     -2.53490734	      6.08235531	     -5.59855327	    -10.75314613
      4.70500000	     -9.81443823	      1.72745064	      9.66568863	     -0.13679020	     -0.01635691	      0.53002142	     36.36641328	     -9.27230116	    -11.59805689	    -37.62168118	     -1.91711925	     -8.67508675	     -0.61899241	      0.34133507	      7.24793927	     13.11451929	     -5.08925814	      6.80635756	      4.80288603	     -2.60917565	      6.02698720	     -5.51523054	    -10.96510561
      4.71000000	     -9.76213935	      1.63185233	      9.82706659	     -0.13038927	     -0.01729444	      0.52991243	     36.48174623	     -9.19841582	    -11.93126150	    -35.92895702	     -1.73302334	     -8.14099524	     -0.93731614	     -0.23316186	      7.04805034	     13.37905500	     -4.93852499	      7.17051515	      4.83813372	     -2.69597697	      5.90572721	     -5.44005434	    -11.22989778
      4.71500000	     -9.74954651	      1.53290572	      9.96733329	     -0.12387215	     -0.01833898	      0.52979843	     36.62828261	     -9.11644669	    -12.28861744	    -34.24155722	     -1.55387089	     -7.54276782	     -1.18597202	     -0.77029053	      6.84852037	     13.60060586	     -4.78409371	      7.53182594	      4.89100406	     -2.75750033	      5.84985029	     -5.35936172	    -11.42553690
      4.72000000	     -9.82326248	      1.43960010	     10.03674755	     -0.11735841	     -0.01956622	      0.52977044	     36.88017128	     -8.98284697	    -12.48697192	    -32.55971223	     -1.43328967	     -6.96692388	     -1.30028994	     -1.18098269	      6.67849045	     13.72554072	     -4.69337668	      7.91368391	      4.90241225	     -2.73910494	      5.88996434	     -5.28455817	    -11.53912188
      4.72500000	     -9.74493405	      1.33128907	     10.23256106	     -0.11081614	     -0.02061723	      0.52963619	     36.90715177	     -8.90049432	    -12.90800288	    -30.88379929	     -1.24118261	     -6.21774777	     -1.50262814	     -1.75608445	      6.44845880	     13.99062501	     -4.59795025	      8.29438334	      5.04819722	     -2.75986433	      5.74852042	     -5.19595702	    -11.79849014
      4.73000000	     -9.67877932	      1.23080896	     10.39595050	     -0.10427327	     -0.02176778	      0.52952473	     36.94432064	     -8.78283821	    -13.21323660	    -29.23452636	     -1.02760161	     -5.48838594	     -1.76656944	     -2.28427375	      6.24130024	     14.19254125	     -4.57634321	      8.71755286	      5.13287640	     -2.78530107	      5.61890461	     -5.10171181	    -12.04952401
